PathFileType	4	(X/Y/Z)	/Users/visionmauri/Downloads/Videos/OAW07-top_Sports2D/OAW07-top_Sports2D_m_person00.trc
DataRate	CameraRate	NumFrames	NumMarkers	Units	OrigDataRate	OrigDataStartFrame	OrigNumFrames
30.0	30.0	10	22	m	30.0	1072	2861
Frame#	Time	Hip			RHip			RKnee			RAnkle			RBigToe			RSmallToe			RHeel			LHip			LKnee			LAnkle			LBigToe			LSmallToe			LHeel			Neck			Head			Nose			RShoulder			RElbow			RWrist			LShoulder			LElbow			LWrist			
		X1	Y1	Z1	X2	Y2	Z2	X3	Y3	Z3	X4	Y4	Z4	X5	Y5	Z5	X6	Y6	Z6	X7	Y7	Z7	X8	Y8	Z8	X9	Y9	Z9	X10	Y10	Z10	X11	Y11	Z11	X12	Y12	Z12	X13	Y13	Z13	X14	Y14	Z14	X15	Y15	Z15	X16	Y16	Z16	X17	Y17	Z17	X18	Y18	Z18	X19	Y19	Z19	X20	Y20	Z20	X21	Y21	Z21	X22	Y22	Z22
1236	41.213624338624335	2.514432630275363	-0.3163088615548893	0.0301	2.453428878280397	-0.45961375781648695	0.0301	2.92247059204022	-0.8696876618482957	0.129	3.424512607121033	-1.3103991463535638	0.023	3.5558781159470567	-1.477361855867145	0.2179	3.4695849659604154	-1.5297930878311985	0.1804	3.517611777868983	-1.3469231445140906	-0.0119	2.6481541381591827	-0.23277339542178013	0.0301	2.9683238749356953	-0.5492515160107723	0.129	3.243499196873626	-0.8171086261049569	0.023	3.3513641210219722	-0.9809309784141664	0.2179	3.387716437138026	-0.8818596015184679	0.1804	3.239577044042001	-0.846293409726602	-0.0119	1.873126316488106	0.24515902636115597	0.0008	1.5934998535051765	0.46570010731775113	0.0655	1.8062031449078035	0.2710311997567683	0.1076	1.7584537332702825	-0.034162575198727306	-0.01275	2.0035928337189324	-0.33867301872084643	0.0702	2.2354567881418768	-0.5297789789196288	0.1076	2.1712373169039068	0.4233974220622798	-0.01275	2.5663312051032343	0.19612347348263368	0.0702	2.846471949913481	-0.04208775040532465	0.1076
1237	41.24696869488536	2.5361848752332183	-0.33994310840660596	0.0301	2.4777264080798993	-0.4822947041565831	0.0301	2.9565155059678854	-0.8956577621414994	0.129	3.470836419014556	-1.3455713833739997	0.023	3.600779927744587	-1.5050680966149872	0.2179	3.515343533962083	-1.557921754023969	0.1804	3.5594685718253656	-1.3818052118316277	-0.0119	2.6740472798697255	-0.25399232332991356	0.0301	2.9815308981860276	-0.553994359639209	0.129	3.250004482761465	-0.8202554177963162	0.023	3.357363200812152	-0.9828791575186234	0.2179	3.3889294342270904	-0.8788233265559022	0.1804	3.2416008201492716	-0.8393722275564628	-0.0119	1.8763053597005068	0.21575473256742156	0.0008	1.5840889588469165	0.43475642308994544	0.0655	1.8065038926186923	0.23276205034729333	0.1076	1.7629088726625497	-0.06058974389411933	-0.01275	2.0192376021177005	-0.3681842366498564	0.0702	2.2585167547671006	-0.5533091827941669	0.1076	2.1756781515734778	0.404290757501762	-0.01275	2.580156193704968	0.1795725642686841	0.0702	2.8623418706965533	-0.0717147981848556	0.1076
1238	41.28031305114638	2.5579175567777392	-0.3635311823083569	0.0301	2.4996127143259996	-0.5056051432963842	0.0301	2.983583043949088	-0.9209262898780429	0.129	3.5087497849725313	-1.3738006774754397	0.023	3.6325395131260674	-1.5253996244890549	0.2179	3.5509808727306846	-1.5756783120855011	0.1804	3.589612359277031	-1.4100487520010776	-0.0119	2.697960562461995	-0.2768902296369829	0.0301	3.0076260851230776	-0.570724663933453	0.129	3.262358766244248	-0.8291292658137625	0.023	3.3666575860856587	-0.984730219181114	0.2179	3.3964996332059743	-0.88403012632429	0.1804	3.253313327281141	-0.8417350825468543	-0.0119	1.8800485977760377	0.18581413564017787	0.0008	1.5676407996258972	0.40833901505711695	0.0655	1.795649985934995	0.2014961167042074	0.1076	1.7657993365776663	-0.091974525355015	-0.01275	2.036743977186201	-0.3989590935321959	0.0702	2.283082711377925	-0.578660050631482	0.1076	2.1812050915139167	0.3825679255936441	-0.01275	2.5941083311268636	0.15781650241564804	0.0702	2.8769823215388928	-0.10430543449997658	0.1076
1239	41.313657407407405	2.5741115183689676	-0.3893502339058511	0.0301	2.5141005638946576	-0.5321278811621137	0.0301	3.0034477061009515	-0.9465996882407318	0.129	3.5317021178161982	-1.3911141129783993	0.023	3.6513717842077162	-1.5392875467048452	0.2179	3.5711787948367966	-1.5868485348741894	0.1804	3.612922178656267	-1.4298055684205484	-0.0119	2.7150407925224447	-0.3018126782532553	0.0301	3.045077271856787	-0.599554129544813	0.129	3.2780243923659667	-0.8376261779551648	0.023	3.382431989960703	-0.987952125804599	0.2179	3.4096784481486786	-0.8938992965824347	0.1804	3.2672007861122236	-0.8493116167413051	-0.0119	1.880552008821505	0.15790618892662486	0.0008	1.549745355892167	0.3876316166988733	0.0655	1.7831689833179085	0.1729018023515104	0.1076	1.7645401011963062	-0.12560943397413113	-0.01275	2.0503456535168674	-0.42722370468070897	0.0702	2.3025494864548546	-0.6009699882199009	0.1076	2.1863397623631413	0.3606659831325279	-0.01275	2.6049625183580245	0.130288164157039	0.0702	2.888311611285901	-0.13785143021889182	0.1076
1240	41.34700176366842	2.5806297074153495	-0.41334625409321435	0.0301	2.5194878599607033	-0.5583472338216617	0.0301	3.0161359254149214	-0.9695692168710972	0.129	3.5396319198303288	-1.397192718484596	0.023	3.6603665233848144	-1.5425119495764164	0.2179	3.579191682709481	-1.5882155516333198	0.1804	3.6246304631105746	-1.4403072797200218	-0.0119	2.7215874477422632	-0.3255730105215805	0.0301	3.0779512545401	-0.625246217088135	0.129	3.2909800898745147	-0.839911959247316	0.023	3.394320582146451	-0.9890045622044484	0.2179	3.4192613099110143	-0.8982147986571223	0.1804	3.277133349738523	-0.8508772103340454	-0.0119	1.8773740097710705	0.13515791607568634	0.0008	1.532712092106386	0.3702513655480511	0.0655	1.7714228748770966	0.14626105162939637	0.1076	1.760838186163112	-0.1548181333482356	-0.01275	2.057865362570419	-0.45081068030026067	0.0702	2.3138032680852856	-0.6178529575103411	0.1076	2.1887387520235086	0.341620448838422	-0.01275	2.612986697313424	0.10142699909930258	0.0702	2.896473747965366	-0.17052765715515075	0.1076
1241	41.38034611992945	2.5791098318121133	-0.43154717695679584	0.0301	2.517491754358644	-0.5794436728678707	0.0301	3.0223351855565097	-0.9874686173037974	0.129	3.5410195588533218	-1.3986875642858883	0.023	3.665031174790414	-1.5388040388774984	0.2179	3.5828879910439038	-1.5848775595554039	0.1804	3.6242986406643953	-1.443847371704225	-0.0119	2.71849039058746	-0.3444535632770225	0.0301	3.0918802956926164	-0.6379606440220145	0.129	3.2958276452083477	-0.833043934993693	0.023	3.3933488438195982	-0.9842832533663258	0.2179	3.4200716613693904	-0.8924149975888461	0.1804	3.2834947419158538	-0.8397782058440993	-0.0119	1.8725812139589013	0.11906104817536052	0.0008	1.5143742801365256	0.35270166073542275	0.0655	1.754431976671432	0.12247895549536317	0.1076	1.7574106085845655	-0.17443357745561153	-0.01275	2.0617659983976933	-0.46774147188154713	0.0702	2.319093089100318	-0.6304469925385771	0.1076	2.186499684392965	0.32644672281579207	-0.01275	2.621643033023299	0.07596764853764437	0.0702	2.9038180591984477	-0.20242203452278767	0.1076
1242	41.413690476190474	2.575297349134107	-0.4484830222798999	0.0301	2.5115198406784813	-0.5963068652404817	0.0301	3.02342175042689	-1.0011044175226973	0.129	3.542913786016237	-1.401298325000832	0.023	3.666666290849007	-1.5393344410066403	0.2179	3.5863722650605943	-1.5859828434526135	0.1804	3.624011945746496	-1.4414276645881543	-0.0119	2.711610339490227	-0.35991055574391767	0.0301	3.093326352599699	-0.6494388715160292	0.129	3.296532284859053	-0.8175932036324991	0.023	3.3919538379263674	-0.9766489611258212	0.2179	3.4243524672660572	-0.883227401321336	0.1804	3.2916372437895918	-0.8180397062618147	-0.0119	1.8678792194941019	0.10801903575977746	0.0008	1.4950586862468935	0.3328098619974942	0.0655	1.732122755390143	0.0995717551733247	0.1076	1.754836595607167	-0.18399168269627275	-0.01275	2.0658564359578513	-0.4788223850914315	0.0702	2.322282269829059	-0.6395401540952258	0.1076	2.1791522684069453	0.3144526767568758	-0.01275	2.629970055915421	0.054189351963891394	0.0702	2.9108989504891554	-0.23379915736755047	0.1076
1243	41.44703483245149	2.573692869443807	-0.4700331746070707	0.0301	2.5068104619741307	-0.6134413400200732	0.0301	3.0223607399984806	-1.0128233793075037	0.129	3.5456414560150513	-1.4042196714837103	0.023	3.661225663419143	-1.5492140959725087	0.2179	3.587261211637289	-1.5921849051633368	0.1804	3.633385505019205	-1.4348279426567283	-0.0119	2.708345077799497	-0.37768917275657843	0.0301	3.1033011202103156	-0.6768821316121505	0.129	3.30930931869547	-0.8035651433110207	0.023	3.4137793822658384	-0.9736108090911066	0.2179	3.4518075287876515	-0.8808768853114641	0.1804	3.3105319390266934	-0.796657939942856	-0.0119	1.8624941988720825	0.10041906397014798	0.0008	1.477157584051981	0.31105184425623567	0.0655	1.7115205429050264	0.07434669165476245	0.1076	1.7517480688731475	-0.18585020672983737	-0.01275	2.071698064043945	-0.48733987988101213	0.0702	2.3253569319184946	-0.6455462158851673	0.1076	2.169451658046394	0.30559630061393717	-0.01275	2.633877947869984	0.033696878493433405	0.0702	2.9155822986229674	-0.2631549160825357	0.1076
1244	41.48037918871252	2.5755727189507187	-0.49369384261326343	0.0301	2.5086362185135114	-0.6320655552022885	0.0301	3.0245153069832074	-1.0235637233289847	0.129	3.5485202868856773	-1.405899884329596	0.023	3.648559215313033	-1.5648175013012202	0.2179	3.581933096290784	-1.5992425194909208	0.1804	3.647479563661915	-1.430676491166547	-0.0119	2.7122923962635763	-0.40082284574599364	0.0301	3.1351641816856586	-0.7217703504804102	0.129	3.3512586887779046	-0.8099908174594691	0.023	3.4723850626530215	-0.9850119762959071	0.2179	3.5123509980003416	-0.8942560181955773	0.1804	3.352718093129463	-0.7943398348978161	-0.0119	1.8563475657117612	0.09603586335340253	0.0008	1.4606018785550496	0.2894806687203581	0.0655	1.6982668127016542	0.04683306673223025	0.1076	1.745412773158159	-0.18342408306568583	-0.01275	2.076558580505214	-0.4928263947129078	0.0702	2.3291824769158427	-0.6506012678544292	0.1076	2.16208958303957	0.29988944820119084	-0.01275	2.6333549625133466	0.014261153054010173	0.0702	2.916185359175464	-0.28871280650216796	0.1076
1245	41.51372354497354	2.5839436115995515	-0.5158177152347534	0.0301	2.5199292108051	-0.6513833932088761	0.0301	3.0357057917634145	-1.0349555962256023	0.129	3.5525170698113464	-1.4081203005756908	0.023	3.6357129150928746	-1.5806671040155014	0.2179	3.572307396697095	-1.6052244635553685	0.1804	3.6569411683715125	-1.4333925609368106	-0.0119	2.724406259110409	-0.42818823944028545	0.0301	3.184085308937776	-0.7734139612809277	0.129	3.4235145131412574	-0.8451650894698909	0.023	3.5619613793772995	-1.0186684251265299	0.2179	3.600999475466392	-0.9307020140487171	0.1804	3.424950255491884	-0.822361419479173	-0.0119	1.8508532990537112	0.09342711909735484	0.0008	1.4451841755927253	0.2691791335154668	0.0655	1.6939018559461434	0.020185297862727842	0.1076	1.7358754257618723	-0.181325548570136	-0.01275	2.0782499499470406	-0.49253627803288197	0.0702	2.335606648761926	-0.6583382366090512	0.1076	2.158645996014261	0.29588221315087476	-0.01275	2.631662839955917	-0.0023539249396878348	0.0702	2.9147976436922662	-0.3119977472667254	0.1076
